<svg width="209" height="49" xmlns="http://www.w3.org/2000/svg"><g fill="none" fill-rule="evenodd"><path d="M19.98 0C8.94 0 0 9.05 0 20.22a20.15 20.15 0 0017.2 20.03v8.72c2.33-5.36 9.63-9.75 9.75-9.8 7.6-2.86 13-10.26 13-18.95C39.96 9.05 31.02 0 19.99 0zm7.64 23.85l-4.65 4c-2.21 1.89-2.5 2.82-2.5 4.83v2.11h-2.74c-1.74 0-3.54-1.53-3.54-3.47 0-2.89.93-5.06 3.78-7.41l4.12-3.42a4.41 4.41 0 001.75-3.53c0-2.82-1.92-4.41-5.81-4.41-4.42 0-7.68 1.47-9.48 3.94h-.29v-2.77c0-4 3.37-8.17 10.99-8.17 8.07 0 12.43 4.82 12.43 10.53 0 3-.98 5.13-4.06 7.77z" fill="#D6071B" fill-rule="nonzero"/><g fill-rule="nonzero"><g fill="#D6071B"><path d="M47.92 24.76c0-2.44 1.4-3.86 4.69-3.86 1.22 0 2.49.16 3.58.43l-.28 2.19c-1.07-.2-2.3-.34-3.22-.34-1.72 0-2.27.6-2.27 2.02v5.12c0 1.42.55 2.02 2.27 2.02.91 0 2.16-.14 3.22-.34l.28 2.18c-1.09.28-2.35.44-3.58.44-3.28 0-4.69-1.42-4.69-3.86v-6zM57.73 24.76c0-2.44 1.4-3.86 4.69-3.86 1.22 0 2.5.16 3.58.43l-.28 2.19c-1.07-.2-2.31-.34-3.22-.34-1.72 0-2.27.6-2.27 2.02v5.12c0 1.42.55 2.02 2.27 2.02.91 0 2.16-.14 3.22-.34l.28 2.18c-1.09.28-2.36.44-3.58.44-3.28 0-4.69-1.42-4.69-3.86v-6zM76 32.7h-3.16l-2.43-6.9-.22 8.62h-2.55l.6-13.33h2.78l3.4 9.47 3.4-9.47h2.8l.59 13.33h-2.55l-.22-8.62z"/></g><g fill="#fff"><path d="M85.48 21.09h9.62c1.87 0 3.61.87 3.61 3.27 0 1-.5 2.22-1.7 2.6V27c1.49.25 2.28 1.74 2.28 3.14 0 1.73-.8 3.92-4.67 3.92h-9.14V21.1zm3.48 5.16h4.85c.8 0 1.3-.44 1.3-1.4 0-.82-.35-1.4-1.8-1.4h-4.35v2.8zm0 5.34h5.14c1.07 0 1.49-.7 1.49-1.52 0-1.02-.63-1.56-1.85-1.56h-4.78v3.08zM113.11 31.16c-.91 2.3-3.1 3.27-6 3.27-3.8 0-6.35-1.56-6.35-5.24 0-3.67 2.55-5.23 6.35-5.23 4.17 0 6.18 2.12 6.18 5.8v.29h-9.26v.03c0 .93.93 2.35 3.08 2.35 1.28 0 2.18-.44 2.63-1.27h3.37zm-3.08-3v-.04c0-.53-.67-2.16-2.99-2.16-2.5 0-3.01 1.92-3.01 2.16v.03h6v.01zM122.9 28.54c0-1.35-.7-2-2.12-2-1.48 0-2.71.75-2.71 2.82v4.71h-3.16v-9.74h3.05v1.42h.03c.57-.82 2.09-1.68 3.93-1.68 1.64 0 4.14.64 4.14 3.51v6.49h-3.16v-5.53zM135.42 27.92c-.33-1.29-1.19-1.7-2.3-1.7-1.72 0-2.71 1.07-2.71 2.98 0 1.9 1 2.98 2.71 2.98 1.23 0 2.16-.76 2.3-1.98h2.87c-.5 3.45-2.65 4.23-5.4 4.23-3.2 0-5.35-1.56-5.35-5.24 0-3.67 2.24-5.23 5.58-5.23 2.15 0 4.65.74 5.17 3.96h-2.87zM139.8 20.87h3.16v4.87h.04c.46-.82 1.97-1.67 3.82-1.67 1.64 0 4.13.63 4.13 3.5v6.5h-3.16v-5.53c0-1.35-.7-2-2.12-2-1.47 0-2.7.75-2.7 2.82v4.71h-3.17v-13.2zM168.07 28.22c0-1.31-1.02-1.68-1.94-1.68-1.3 0-2.39.73-2.39 2.25v5.27h-3.16v-5.84c0-1.31-1.02-1.68-1.9-1.68-1.35 0-2.42.73-2.42 2.25v5.27h-3.16v-9.73h3.05v1.42h.03c.58-.82 2.09-1.68 3.93-1.68 1.83 0 2.84.73 3.32 1.84a4.73 4.73 0 013.97-1.84c1.94 0 3.83.84 3.83 3.4v6.6h-3.16v-5.85zM173.43 27.3c.37-3 3.1-3.34 5.68-3.34 4.53 0 5.5 1.5 5.5 3.3v4.85c0 .85.14 1.47.36 1.96h-3.16c-.1-.34-.2-.7-.22-1.04-1.07 1.09-3.09 1.4-4.5 1.4-2.52 0-4.28-.9-4.28-3.17 0-2.36 2.06-2.86 3.99-3l3.36-.23c.97-.07 1.29-.24 1.29-1.02s-.65-1.16-2.48-1.16c-1.35 0-2.05.1-2.5 1.46h-3.04zm8.13 2.02c-.6.3-1.24.37-1.87.42l-1.83.16c-1.11.09-1.67.4-1.67 1.27s.81 1.37 2 1.37c1.59 0 3.37-.78 3.37-2.42v-.8zM186.7 24.33h3.04v1.9h.04c1.15-1.48 2.05-2.16 3.84-2.16.37 0 .8.02 1.15.1v2.99a6.4 6.4 0 00-1.74-.3c-2.15 0-3.18 1.12-3.18 3v4.2h-3.16v-9.73zM196 20.87h3.18v7.09l4.18-3.63h4.4l-4.58 3.7 4.86 6.03h-4.18l-3.14-4.05-1.54 1.26v2.8H196z"/></g></g><g fill="#666"><path d="M94.46 9.37h7.25v2.22h-1.78v-.38c0-.2-.12-.37-.39-.37h-1.6v1.25h1.48v1.35h-1.49v1c0 .28.12.39.47.39h.57v1.47h-4.51v-1.47h.6c.17 0 .29-.12.29-.3V11.2c0-.2-.03-.36-.32-.36h-.57V9.37z"/><path d="M105.81 11.19c0-.26.08-.35.33-.35h.53V9.36h-4.28v1.48h.54c.3 0 .33.13.33.35v3.32c0 .26-.15.32-.34.32h-.54v1.47h4.29v-1.47h-.53c-.2 0-.33-.09-.33-.32v-3.32zM112.97 9.37h1.52v2.43h-1.53s-.43-1.06-1.66-1.06c-.93 0-1.65.67-1.65 1.92 0 2.12 1.16 2.3 1.66 2.3 1.03 0 1.26-.73 1.26-1.03h-.95v-1.28h3.28l-.02.9c0 .17-.17 2.87-3.85 2.87-2.65 0-4.04-1.53-4.04-3.73 0-1.45 1.12-3.43 3.82-3.43 1.51 0 2.17.62 2.17.62v-.51h-.01zM122.92 14.83c-.3 0-.38-.26-.56-.7-.14-.34-1.8-4.76-1.8-4.76h-2.64l-1.88 5.12c-.1.24-.25.34-.51.34h-.39v1.47h3.23v-1.4h-.45c-.2 0-.23-.15-.17-.36l.2-.62h1.96l.21.66c.08.23-.17.32-.31.32h-.39v1.4h3.89v-1.47h-.39zm-4.64-1.86l.67-2.04h.02l.64 2.04h-1.33zM132.03 14.83c-.26 0-.3-.13-.44-.3a72.9 72.9 0 01-.95-1.47s1.2-.35 1.2-1.64-1.07-1.75-1.52-1.87a9.97 9.97 0 00-1.7-.18h-4.68v1.48h.46c.29 0 .32.15.32.35v3.3c0 .14-.02.33-.34.33h-.45v1.48h4.12v-1.48h-.42c-.29 0-.32-.16-.32-.33v-1.12h.92l1.68 2.92h2.59v-1.47h-.47zm-3.78-2.66h-.94v-1.42h1.02c.3 0 .83.1.83.72 0 .47-.34.7-.9.7zM136.3 9.26c-2.86 0-3.9 1.94-3.9 3.5 0 2.08 1.44 3.66 3.88 3.66 2.18 0 3.9-1.2 3.9-3.57 0-2.24-1.64-3.59-3.87-3.59zm.06 5.7c-.63 0-1.3-.38-1.3-2.31 0-1.2.46-1.93 1.23-1.93.72 0 1.25.49 1.25 2.06 0 1.7-.55 2.18-1.18 2.18z" fill-rule="nonzero"/><g fill-rule="nonzero"><path d="M55.32 12.63h-3.37v1.45h1.07c-.22.5-.65.77-1.27.77-.85 0-1.75-.57-1.75-2.14 0-1.16.69-1.94 1.7-1.94.42 0 .73.1 1.03.31.29.2.5.5.62.85l.04.12h1.39V9.37h-1.44v.37a3.5 3.5 0 00-1.87-.48c-2.13 0-3.62 1.47-3.62 3.56 0 2.17 1.49 3.57 3.8 3.57a4 4 0 002.88-1.11c.6-.62.86-1.46.8-2.48v-.17zM60.99 13.1a1.82 1.82 0 001.06-1.72c0-1.19-.87-2.02-2.13-2.02H55.7v1.46h.89v4.03h-.9v1.45h3.74v-1.45h-.81V13.4h.48l1.47 2.9h2.25v-1.45h-.9l-.93-1.76zm-2.37-2.28h.7c.61 0 .63.52.63.57 0 .19-.08.62-.81.62h-.52v-1.2zM66.5 9.26c-2.6 0-3.78 1.85-3.78 3.57 0 1.71 1.19 3.56 3.78 3.56 2.61 0 3.8-1.85 3.8-3.56 0-1.72-1.19-3.57-3.8-3.57zm1.65 3.56c0 1.4-.82 2.03-1.65 2.03-.97 0-1.63-.8-1.63-2 0-1.51.88-2.05 1.63-2.05.99 0 1.65.8 1.65 2.02zM74.16 10.82h.54v3.24c0 .6-.23.86-.74.86-.48 0-.68-.26-.68-.92v-3.18h.57V9.37h-3.37v1.45h.77v3.29c0 1.48.87 2.27 2.52 2.27.57 0 2.42-.15 2.42-2.03v-3.53H77V9.37h-2.84v1.45zM81.46 9.37H77.6v1.45h.82v4.03h-.82v1.46h3.75v-1.46h-.9v-.95h.9c1.85 0 2.5-1.16 2.5-2.26 0-1.32-1-2.27-2.38-2.27zm.25 2.27c0 .4-.11.8-.96.8h-.3v-1.62h.48c.48 0 .78.32.78.82zM90.1 11.79V9.37h-6.07v1.45h.77v4.03h-.77v1.45h6.06v-2.44h-1.57v.99h-1.7v-1.4h1.64V12h-1.63v-1.18h1.7v.97z"/></g></g></g></svg>