<?xml version="1.0" encoding="utf-8"?>
<!-- Generator: Adobe Illustrator 22.1.0, SVG Export Plug-In . SVG Version: 6.00 Build 0)  -->
<svg version="1.1" xmlns="http://www.w3.org/2000/svg" xmlns:xlink="http://www.w3.org/1999/xlink" x="0px" y="0px"
	 viewBox="0 0 587.1 213" style="enable-background:new 0 0 587.1 213;" xml:space="preserve">
<style type="text/css">
	.st0{fill:#D6071B;}
	.st1{fill:#FFFFFF;}
</style>
<g id="Calque_3">
	<rect x="-10.8" y="-13.6" class="st0" width="618" height="243"/>
</g>
<g id="Calque_2">
	<g>
		<path class="st1" d="M76.2,212.9c0-12.4,0-24.9,0-37.4c-0.9-0.2-1.8-0.3-2.6-0.5c-14.4-2.4-27.4-8.1-39-17
			C18.7,145.8,8.1,130,2.9,110.6c-1.5-5.5-2.3-11-2.7-16.7c-0.3-4.2-0.3-8.4,0.1-12.6c1.1-13.9,5.2-27,12.6-38.9
			C26,21.5,44.6,8.1,68.6,2.3c8-1.9,16.1-2.6,24.2-2.2C129.7,1.9,160.3,26,172,58.7c2.2,6.3,3.7,12.7,4.5,19.3
			c0.7,5.7,0.8,11.4,0.3,17.1c-1.7,19.6-9,36.8-22,51.5c-9.5,10.8-21.1,18.7-34.5,23.8c-0.5,0.2-1,0.4-1.5,0.7
			c-11.6,7.2-22.2,15.5-31.3,25.6c-4.3,4.8-8.1,10-10.8,15.9c0,0.1-0.1,0.2-0.2,0.2C76.3,213,76.3,213,76.2,212.9z M36.7,71.8
			c1.2,0.2,1.1,0.2,1.8-0.6c1.4-1.6,2.8-3.2,4.3-4.6c4.7-4.3,10.2-7.1,16.2-8.9c5-1.6,10.2-2.4,15.5-2.8c4.5-0.3,9.1-0.3,13.6,0.4
			c3.1,0.5,6.2,1.4,9,2.9c3.2,1.8,5.7,4.3,7.1,7.7c2,4.8,2.1,9.7,0.3,14.6c-1.3,3.6-3.7,6.4-6.6,8.8c-5,4.1-9.9,8.1-14.9,12.1
			c-3,2.5-6.1,4.9-8.8,7.7c-3.3,3.4-6.2,7.2-8.2,11.5c-2.3,5.1-3.1,10.6-3.1,16.1c0,0.7,0.1,1.3,0.2,1.9c1.4,7.4,8.2,12.5,14.4,12.8
			c4.3,0.2,8.6,0.1,12.8,0.1c0.1,0,0.2-0.1,0.4-0.1c0-0.4,0-0.8,0-1.1c0-3.9,0-7.7,0.1-11.6c0.1-4.2,1.6-7.9,4.4-11.1
			c1.8-2.1,3.8-4,6-5.8c6.9-5.8,13.7-11.6,20.6-17.4c3.5-3,6.9-6.1,9.8-9.6c3.3-4,5.9-8.3,7.4-13.4c1.7-6.2,1.9-12.5,0.9-18.8
			c-1.9-11.6-7.6-20.9-17.1-27.8c-7-5.2-15-8.1-23.5-9.6C93.2,24.3,87,24,80.9,24.3c-5.5,0.3-10.9,1.1-16.1,2.6
			c-6.3,1.9-12.1,4.7-17.1,9.1c-6.7,6-10.7,13.5-11,22.6c-0.2,4.3-0.1,8.6-0.1,12.8C36.6,71.6,36.6,71.7,36.7,71.8z"/>
		<path class="st1" d="M463.4,26.2c10.9,0,21.8,0,32.7,0c0.6,1.7,1.2,3.4,1.8,5.1c5.5,16.1,11.1,32.1,16.6,48.3
			c2,5.9,3.6,11.9,5.4,17.8c0.1,0.3,0.2,0.7,0.3,1c0.1,0,0.1,0,0.2,0c0.1-0.3,0.2-0.6,0.3-0.9c1.9-6.2,3.7-12.5,5.7-18.7
			c4.8-14.1,9.7-28.2,14.5-42.2c1.1-3.3,2.3-6.6,3.4-9.9c0-0.1,0.1-0.2,0.2-0.4c10.9,0,21.7,0,32.7,0c3.3,40.9,6.6,81.8,10,122.7
			c-10,0-20,0-30,0c0-0.2-0.1-0.4-0.1-0.6c-0.2-3.4-0.4-6.7-0.7-10.1c-0.2-3.5-0.5-6.9-0.7-10.4c-0.4-5.2-0.7-10.4-1-15.6
			c-0.3-4.4-0.6-8.7-0.9-13.1c-0.5-6.7-0.8-13.3-0.6-20c0-1.8,0.1-3.6,0.2-5.4c0-0.2,0-0.4,0-0.5c-0.1,0-0.1,0-0.2,0
			c0,0-0.1,0-0.1,0c0,0-0.1,0.1-0.1,0.2c0,0.1-0.1,0.2-0.1,0.4c-5.8,18.5-12.8,36.7-19.3,55c0,0.1-0.1,0.2-0.1,0.3
			c0,0.1-0.1,0.1-0.1,0.2c0,0,0,0-0.1,0.1c-8.5,0-17.1,0-25.7,0c-6.6-18.7-13.8-37.2-19.7-56.1c-0.1,0-0.2,0-0.3,0
			c0,0.3-0.1,0.5-0.1,0.8c0.1,4.1,0.3,8.3,0.2,12.4c0,3.2-0.3,6.4-0.5,9.6c-0.2,3.4-0.4,6.8-0.7,10.3c-0.4,5.7-0.8,11.5-1.2,17.2
			c-0.4,5.7-0.8,11.5-1.2,17.2c-0.2,2.6-0.4,5.2-0.5,7.8c0,0.1,0,0.3-0.1,0.4c-0.7,0.2-29.1,0.2-30.2,0
			C456.6,108,460,67.1,463.4,26.2z"/>
		<path class="st1" d="M331.3,41.4c-4.7,7.6-9.3,15.1-13.9,22.7c-0.4-0.3-0.6-0.5-0.9-0.7c-6.2-5-13-8.7-20.8-10.6
			c-7.3-1.8-14.5-1.6-21.6,0.8c-9.5,3.2-16,9.7-19.6,19c-2.2,5.7-2.9,11.7-2.4,17.8c0.6,6.8,2.7,13.1,6.5,18.8
			c5.3,7.8,12.7,12.6,22.1,14.1c7.2,1.2,14.2,0.1,20.9-2.7c6.4-2.7,12-6.5,17-11.3c0.2-0.2,0.4-0.4,0.7-0.6
			c5.2,7.3,10.3,14.6,15.5,22c-0.4,0.4-0.7,0.8-1.1,1.2c-4.8,4.8-10.3,8.7-16.4,11.8c-6.7,3.4-13.8,5.7-21.3,6.8
			c-4.9,0.7-9.9,0.9-14.9,0.7c-6.6-0.3-13.1-1.4-19.4-3.7c-20.1-7.3-33-21.3-38.7-41.9c-1.9-7-2.6-14.2-2.2-21.5
			c0.6-12.6,4.5-24,11.9-34.2c8-10.9,18.5-18.2,31.3-22.4c5.9-1.9,11.9-2.9,18.1-3.2c9.8-0.4,19.3,0.9,28.5,4.4
			c7.1,2.6,13.5,6.3,19.2,11.4C330.3,40.4,330.8,40.9,331.3,41.4z"/>
		<path class="st1" d="M431,64.1c-2.6-2.2-5.2-4.1-8-5.7c-5.1-3-10.5-5.3-16.4-6.3c-9.2-1.5-17.9-0.3-25.9,4.7
			c-6.4,4-10.5,9.7-13,16.7c-1.9,5.3-2.5,10.7-2,16.3c0.5,6.4,2.3,12.3,5.6,17.8c5.2,8.4,12.6,13.6,22.4,15.4
			c7.4,1.3,14.6,0.3,21.5-2.6c6.4-2.7,12-6.5,17.1-11.3c0.2-0.2,0.3-0.3,0.5-0.5c0,0,0.1-0.1,0.3-0.1c5.1,7.3,10.2,14.6,15.4,21.9
			c-0.9,0.9-1.8,1.8-2.7,2.7c-7.9,7.2-17,12.2-27.2,15.2c-7.8,2.2-15.7,3-23.8,2.6c-8.8-0.5-17.2-2.3-25.2-6
			c-16.3-7.7-27-20.3-32.2-37.4c-2.4-7.7-3.2-15.5-2.8-23.5c0.5-11.2,3.7-21.6,9.7-31.1c8-12.5,19.3-20.9,33.4-25.6
			c5.9-1.9,12-2.9,18.2-3.2c11.4-0.5,22.3,1.4,32.7,6.2c5.4,2.5,10.5,5.6,14.9,9.6c0.4,0.4,0.8,0.8,1.3,1.2c0.1,0.1,0.1,0.2,0.2,0.3
			C440.2,49,435.6,56.5,431,64.1z"/>
	</g>
</g>
</svg>
